<svg xmlns="http://www.w3.org/2000/svg" xmlns:xlink="http://www.w3.org/1999/xlink" version="1.1" id="Layer_1" x="0px" y="0px" width="100%" viewBox="0 0 1024 1024" enable-background="new 0 0 1024 1024" xml:space="preserve">
<path fill="#f9f9f8" opacity="1.000000" stroke="none" d=" M528.000000,437.272644   C390.017395,437.272980 252.533859,437.529633 115.052940,437.047302   C88.972977,436.955841 62.377140,455.778961 62.447025,489.661285   C62.500637,515.653076 62.869328,541.644592 62.848801,567.636047   C62.817745,606.959351 62.648148,646.283081 62.373653,685.605469   C62.272778,700.056702 65.145187,713.431152 74.990753,724.547546   C84.499527,735.283691 96.362907,741.339539 110.839661,741.730896   C117.001091,741.897522 123.173912,741.882996 129.335327,741.718140   C132.903778,741.622681 134.581924,742.836365 134.389511,746.599487   C134.185516,750.588867 134.316833,754.595947 134.323807,758.595337   C134.327423,760.673035 133.742889,762.231750 131.294174,762.250610   C114.996300,762.376160 98.581177,763.575012 83.271866,755.953430   C56.560921,742.655579 42.410191,720.813904 42.156971,691.328491   C41.573112,623.342102 41.770565,555.346558 42.034409,487.356140   C42.189514,447.386261 73.566986,416.733002 113.530373,416.705841   C134.861008,416.691345 156.192963,416.572662 177.521255,416.795258   C182.252655,416.844635 183.816452,415.579163 183.774399,410.667786   C183.547546,384.173065 183.648193,357.675385 183.670181,331.178741   C183.700958,294.084991 212.890060,264.813568 249.916855,264.760651   C273.747131,264.726562 297.578400,264.648529 321.407013,264.850769   C326.167877,264.891205 327.860504,263.505554 327.669830,258.628235   C326.628143,231.980911 327.230530,205.315247 327.106598,178.656967   C327.074280,171.705765 327.143402,171.689240 334.007812,171.683868   C346.839539,171.673813 359.672363,171.591843 372.502197,171.748810   C375.916870,171.790588 377.801697,170.810287 379.372070,167.526764   C385.765015,154.159653 400.160065,147.602600 414.893982,150.913483   C428.685760,154.012680 439.097076,167.161499 439.101501,181.486008   C439.105713,195.084686 429.425049,207.823578 416.207275,211.612686   C402.528961,215.533829 387.663086,210.064957 380.865295,197.793457   C378.343933,193.241852 375.474548,191.861847 370.642090,192.152069   C364.664246,192.511063 358.646912,192.333084 352.650330,192.208405   C349.594238,192.144836 348.015045,193.062164 348.021240,196.425674   C348.060669,217.755997 348.022308,239.086594 347.934387,260.416809   C347.921112,263.639130 349.267059,264.937195 352.447235,264.785950   C355.439972,264.643555 358.445007,264.762238 361.444611,264.761963   C470.930756,264.752625 580.416931,264.705902 689.903076,264.763031   C712.771729,264.774963 731.209778,274.076813 744.747009,292.535004   C773.813354,332.167542 802.767639,371.882507 831.662842,411.640015   C834.233398,415.176910 836.921448,416.858276 841.528259,416.812195   C866.022705,416.567078 890.520935,416.660797 915.017761,416.712860   C949.858032,416.786926 980.585327,445.287659 983.440002,479.918060   C983.879272,485.246399 984.032104,490.553711 984.032715,495.882050   C984.040405,560.540527 984.071289,625.199036 984.043091,689.857483   C984.027893,724.626648 961.600525,753.213806 928.579407,760.747192   C917.546631,763.264221 906.355042,762.049561 895.223022,762.263184   C892.654236,762.312439 891.880127,760.957397 891.650818,758.556396   C890.046570,741.760803 890.018616,741.406311 906.686218,741.869385   C920.846802,742.262817 933.859009,739.772217 945.000488,730.497681   C957.462830,720.123718 963.474976,706.528931 963.517151,690.598755   C963.695312,623.274353 963.722351,555.948975 963.522949,488.624725   C963.445129,462.329620 946.884766,442.727386 921.392944,437.825684   C918.482605,437.266052 915.430969,437.296753 912.444885,437.296173   C784.463257,437.271088 656.481628,437.273529 528.000000,437.272644  M345.500031,285.302765   C313.833557,285.303070 282.167023,285.283081 250.500580,285.309906   C224.135635,285.332275 204.317093,305.059021 204.258942,331.405853   C204.200836,357.738892 204.392349,384.073486 204.148666,410.404358   C204.101013,415.554626 205.688034,416.806549 210.677277,416.803467   C408.343109,416.680878 606.008972,416.696533 803.674866,416.659973   C805.402283,416.659668 807.311523,417.275208 809.080933,415.741516   C808.523987,414.875397 808.042847,414.033966 807.474304,413.256470   C781.214478,377.340698 754.923645,341.447510 728.692200,305.510956   C718.728943,291.861450 705.446289,285.253754 688.498657,285.265991   C574.499146,285.348328 460.499603,285.305634 345.500031,285.302765  M418.446625,182.241653   C418.589111,179.997116 417.878632,177.948502 416.769684,176.079163   C414.541260,172.322601 411.035187,170.276642 406.797058,170.630142   C402.180756,171.015167 398.859680,173.667572 397.190186,178.225037   C395.602325,182.559784 396.984375,186.159683 399.970764,189.124084   C406.410583,195.516357 415.139557,192.510590 418.446625,182.241653  z"/>
<path fill="#f9f9f8" opacity="1.000000" stroke="none" d=" M230.001694,827.280151   C188.081314,826.767456 154.138062,792.748596 154.913986,751.688721   C155.717880,709.148926 188.395920,677.133240 229.932907,677.112244   C273.402252,677.090271 304.853455,711.230896 305.182953,751.898743   C305.518066,793.249573 271.904541,826.952942 230.001694,827.280151  M238.514297,805.986694   C239.006775,805.901550 239.500854,805.824829 239.991501,805.730164   C267.249146,800.470764 286.892487,775.187744 284.577606,748.345276   C282.133423,720.003540 259.462189,698.243347 231.537445,697.436462   C198.422577,696.479614 171.836151,725.968811 176.123901,758.900146   C180.073868,789.237305 207.837234,810.571777 238.514297,805.986694  z"/>
<path fill="#f9f9f8" opacity="1.000000" stroke="none" d=" M738.146362,704.186218   C753.383911,686.522095 772.536987,677.054565 795.330933,677.053101   C832.871338,677.050659 862.189514,702.550171 869.250061,736.161255   C879.475281,784.837036 842.474060,828.696960 792.689819,827.255249   C757.079651,826.223999 725.786682,797.224243 721.560364,761.850769   C718.985413,740.299377 724.659973,721.362976 738.146362,704.186218  M760.297546,710.787415   C745.626099,724.450073 738.781677,741.103149 742.320862,761.078064   C746.213318,783.046204 759.231079,797.917603 780.476807,804.321899   C802.496643,810.959534 821.991028,804.905090 836.949341,787.725586   C852.092590,770.333618 854.876038,750.076355 845.234253,729.013672   C830.858398,697.609192 790.030701,686.621582 760.297546,710.787415  z"/>
<path fill="#f9f9f8" opacity="1.000000" stroke="none" d=" M634.997864,762.334961   C627.169189,762.328674 619.837097,762.193726 612.512329,762.368164   C608.803345,762.456421 607.598083,760.987488 607.607910,757.366577   C607.697449,724.385864 607.665100,691.404785 607.659302,658.423828   C607.658875,655.954590 607.711731,653.634705 611.177917,653.723572   C626.459290,654.115356 641.838684,652.302734 656.982971,655.664917   C659.892029,656.310791 662.781799,657.213928 665.538330,658.344910   C675.008972,662.230469 680.475769,669.226074 681.241943,679.557434   C682.009949,689.913330 677.722656,697.598450 668.659851,702.643127   C667.648926,703.205872 666.668945,703.824280 665.100464,704.759094   C667.114136,705.601990 668.677856,706.311340 670.280273,706.918518   C680.923340,710.950562 685.944275,718.999329 686.094727,730.024658   C686.247314,741.198853 682.685913,750.680359 672.045227,756.202209   C664.035645,760.358704 655.328186,761.649292 646.488281,762.238037   C642.838684,762.481140 639.161865,762.314575 634.997864,762.334961  M660.578247,720.042175   C658.917664,717.877502 656.778259,716.368591 654.258362,715.351074   C647.065186,712.446472 639.528320,713.453369 632.088684,713.401001   C629.939148,713.385803 629.305786,714.790588 629.309570,716.714111   C629.326355,725.187744 629.348755,733.661621 629.296509,742.134949   C629.281006,744.649841 630.346619,745.784302 632.873169,745.728699   C637.522949,745.626099 642.199585,745.903625 646.821106,745.508850   C664.731628,743.979065 665.927734,730.894165 660.578247,720.042175  M655.997070,692.396973   C662.805603,681.867249 658.681763,672.241821 646.420410,670.568665   C642.004150,669.966064 637.471680,670.208618 632.991943,670.079712   C630.583130,670.010437 629.281738,671.028076 629.302490,673.612061   C629.358521,680.587463 629.323303,687.563416 629.341553,694.539185   C629.345276,695.942871 629.638000,697.508667 631.293640,697.524048   C639.649719,697.601746 648.376343,699.440613 655.997070,692.396973  z"/>
<path fill="#f9f9f8" opacity="1.000000" stroke="none" d=" M687.580322,583.184814   C685.003723,561.314148 686.808167,541.003967 703.490356,524.966064   C719.935852,509.155701 751.071533,508.439240 768.471313,523.115723   C770.767273,525.052307 771.297607,526.645935 768.894714,528.716431   C768.518066,529.041016 768.200256,529.433838 767.855835,529.795715   C760.579773,537.440002 760.579773,537.440002 751.201660,532.642151   C732.849304,523.253113 714.026245,533.755554 710.469360,555.478638   C708.624634,566.744690 708.874939,577.995483 711.357361,589.177185   C715.832764,609.336548 731.498535,611.878113 747.178711,606.746033   C749.728821,605.911316 750.782959,604.193665 750.730652,601.456055   C750.609863,595.130676 750.580872,588.797974 750.753540,582.474792   C750.844849,579.132935 749.389893,577.931213 746.276245,578.207703   C746.111084,578.222351 745.943359,578.206970 745.776855,578.208069   C731.911316,578.295593 735.391846,579.018311 732.884949,565.821350   C732.391907,563.225830 733.242004,561.676331 736.227112,561.692078   C747.050354,561.749084 757.874146,561.738708 768.697571,561.712524   C771.214294,561.706421 772.299377,562.859863 772.293701,565.356873   C772.257874,581.009460 772.249512,596.662170 772.276306,612.314880   C772.280273,614.658691 770.994751,615.962524 769.119507,616.964478   C753.088501,625.529785 736.198425,628.829285 718.498352,623.761108   C698.574219,618.056152 690.513000,602.706238 687.580322,583.184814  z"/>
<path fill="#f9f9f8" opacity="1.000000" stroke="none" d=" M390.529358,623.401123   C368.217651,622.511108 354.257416,608.515747 353.918274,586.275330   C353.572784,563.620300 353.932251,540.955139 353.800995,518.295471   C353.775696,513.925903 355.339844,512.269653 359.675751,512.622375   C363.151886,512.905090 366.679077,512.846008 370.165588,512.637390   C373.897278,512.414062 375.390747,513.591064 375.544464,517.652771   C376.301056,537.643127 375.672943,557.634583 375.936310,577.622314   C375.993347,581.951599 375.931213,586.300659 376.327209,590.603577   C377.244385,600.569458 384.359619,606.670349 394.614716,606.576477   C405.013611,606.481323 411.989868,600.447876 412.669952,590.409241   C413.130920,583.604797 412.970062,576.756836 413.044342,569.927856   C413.232788,552.605042 413.475800,535.282043 413.508606,517.958801   C413.515686,514.223938 414.500885,512.377747 418.573120,512.628296   C422.723083,512.883606 426.902405,512.763855 431.065643,512.667053   C433.935150,512.600403 435.339050,513.621094 435.329132,516.702759   C435.252014,540.695801 435.754639,564.703003 435.084412,588.678040   C434.532745,608.412292 419.658447,622.418884 399.936188,623.320007   C396.950470,623.456360 393.955658,623.393555 390.529358,623.401123  z"/>
<path fill="#f9f9f8" opacity="1.000000" stroke="none" d=" M612.350769,526.023682   C612.356079,546.011902 612.336426,565.503235 612.395569,584.994324   C612.403076,587.472473 612.656921,589.977905 613.078369,592.422058   C615.431213,606.065247 625.609741,612.036804 638.723145,607.545044   C645.589844,605.192932 649.618896,599.463135 649.699463,590.778198   C649.904968,568.623474 649.857117,546.466492 649.909668,524.310364   C649.932129,514.810364 649.932190,514.712219 659.337769,514.827271   C673.654907,515.002380 672.090210,512.527588 672.119568,527.461609   C672.157288,546.619629 671.833435,565.782715 672.170715,584.934692   C672.769531,618.937805 646.932434,627.933289 625.360413,625.706970   C611.036804,624.228699 599.921387,618.328979 593.970215,604.592773   C591.893860,599.800110 590.786133,594.749451 590.769531,589.550415   C590.695679,566.394470 590.788208,543.237854 590.664795,520.082275   C590.644470,516.270508 591.813477,514.511963 595.803284,514.770203   C599.121033,514.984802 602.464111,514.794495 605.795898,514.807190   C612.324280,514.832092 612.324768,514.838928 612.346008,521.528381   C612.350220,522.861145 612.348877,524.193970 612.350769,526.023682  z"/>
<path fill="#f9f9f8" opacity="1.000000" stroke="none" d=" M571.126465,653.703430   C575.445007,653.701965 579.278015,653.768982 583.107788,653.684937   C586.015015,653.621155 587.342285,654.795593 587.334229,657.812256   C587.269409,682.134521 587.862061,706.476135 587.070374,730.773193   C586.466736,749.299805 572.019226,762.845947 553.481079,764.267212   C547.828857,764.700684 542.150330,764.942261 536.558533,763.866272   C517.042297,760.110840 506.271576,747.182495 506.040771,726.545837   C505.791138,704.225159 506.089874,681.898804 505.990356,659.575623   C505.970215,655.055481 507.610657,653.175659 512.191223,653.645447   C514.993652,653.932861 517.849976,653.690430 520.682068,653.694702   C527.964050,653.705811 528.006104,653.720703 528.013977,660.824829   C528.032166,677.317749 528.001648,693.810669 528.029358,710.303528   C528.039978,716.632874 527.996338,722.968750 528.257751,729.289978   C528.726990,740.635315 534.554749,746.753296 545.346741,747.556396   C555.921509,748.343445 562.946289,742.760803 564.882324,731.876648   C565.345581,729.271973 565.602356,726.594910 565.609497,723.950256   C565.668030,702.293030 565.705505,680.635254 565.589111,658.978516   C565.568970,655.237854 566.583557,653.198608 571.126465,653.703430  z"/>
<path fill="#f9f9f8" opacity="1.000000" stroke="none" d=" M183.508469,617.621338   C172.933563,610.627563 167.898376,600.772400 167.736664,588.765442   C167.420471,565.289185 167.715103,541.805054 167.531021,518.326050   C167.497055,513.993225 168.764999,512.223877 173.207962,512.619629   C176.677460,512.928650 180.216553,512.915283 183.688721,512.620789   C188.166122,512.241089 189.388809,514.132996 189.358215,518.409241   C189.202087,540.223267 189.294250,562.039124 189.316711,583.854309   C189.318939,586.016479 189.215668,588.212341 189.539474,590.334900   C191.217392,601.333374 198.210846,607.209656 208.649597,606.546570   C220.129913,605.817322 226.518478,599.275391 226.619049,587.402893   C226.810898,564.756592 226.706757,542.107849 226.740311,519.460083   C226.750305,512.711914 226.772919,512.704590 233.281479,512.684937   C236.945007,512.673889 240.611481,512.782776 244.271347,512.668457   C247.282410,512.574341 248.378494,513.895691 248.369904,516.849182   C248.298279,541.494934 248.671906,566.148376 248.166962,590.784241   C247.827805,607.331116 234.525726,620.675659 216.709610,623.000977   C205.369995,624.481079 194.067322,624.066467 183.508469,617.621338  z"/>
<path fill="#f9f9f8" opacity="1.000000" stroke="none" d=" M788.667114,549.205566   C785.239807,537.900696 781.910583,526.985657 778.330261,515.247437   C786.010376,514.530945 792.772583,514.636902 799.505493,515.042847   C802.544983,515.226074 802.506958,518.335693 803.060303,520.442444   C809.564636,545.205627 815.966614,569.995789 822.410522,594.774841   C822.868652,596.536682 823.443359,598.268250 824.841370,600.191833   C826.768250,592.816284 828.726318,585.448730 830.615784,578.063660   C835.601990,558.575073 840.650085,539.101318 845.445129,519.565674   C846.341003,515.915649 848.033203,514.546204 851.646973,514.781555   C854.798584,514.986877 857.974365,514.812134 861.139343,514.824524   C869.050598,514.855469 869.050964,514.884338 866.727295,522.700195   C860.422180,543.908081 854.139343,565.122559 847.842590,586.332947   C844.575439,597.338135 841.216492,608.317078 838.074768,619.357910   C837.145569,622.623352 835.359070,623.989014 832.025879,623.886353   C826.700623,623.722229 821.366638,623.623657 816.041748,623.740845   C812.453430,623.819763 810.879211,622.286255 809.851379,618.841919   C802.951477,595.721313 795.820862,572.669556 788.667114,549.205566  z"/>
<path fill="#f9f9f8" opacity="1.000000" stroke="none" d=" M382.349670,669.217529   C372.956451,672.064941 367.759247,678.607239 365.465027,687.245972   C361.903259,700.657166 361.665405,714.322815 365.418701,727.720520   C370.481415,745.792297 387.496918,752.213257 403.757568,742.698486   C406.108124,741.323120 408.623016,737.875732 411.067261,739.421387   C414.927490,741.862366 417.610992,745.999756 419.857788,750.084534   C420.867462,751.920227 418.842041,753.056580 417.672058,754.126282   C398.591034,771.572205 362.713898,767.232971 349.674957,744.772339   C335.768646,720.817505 335.612976,695.567444 349.717896,671.597046   C362.925171,649.152161 396.573578,644.357117 416.897308,660.783630   C419.082336,662.549683 419.543457,664.032227 417.492096,666.044861   C417.373383,666.161377 417.268188,666.291687 417.157532,666.416260   C414.618256,669.275330 412.580109,673.129333 409.406006,674.727722   C405.878998,676.503906 403.201691,671.898376 399.814026,670.717041   C394.180237,668.752502 388.641846,667.457214 382.349670,669.217529  z"/>
<path fill="#f9f9f8" opacity="1.000000" stroke="none" d=" M304.446167,604.771118   C313.022766,607.070251 320.621735,605.691040 327.763824,601.216309   C334.134583,597.224854 334.160461,597.266174 338.635162,602.911011   C344.973358,610.906616 344.915558,610.818298 336.388855,616.396606   C314.820038,630.507324 273.490417,626.738647 264.956238,584.435486   C261.956146,569.564392 262.310455,554.647095 267.660706,540.192261   C279.881439,507.175354 318.224976,503.361572 339.665802,519.384766   C342.298676,521.352356 342.690521,523.113770 340.293610,525.392090   C340.173462,525.506226 340.076630,525.644470 339.965820,525.768738   C337.533813,528.495789 335.578827,532.182800 332.541534,533.692871   C329.163025,535.372498 326.539185,531.127563 323.430695,529.796326   C308.601410,523.445496 294.251984,529.303284 289.315399,544.613037   C284.608612,559.210266 284.674835,574.101135 289.316895,588.770264   C291.683777,596.249756 296.433197,601.879883 304.446167,604.771118  z"/>
<path fill="#f9f9f8" opacity="1.000000" stroke="none" d=" M457.477448,744.560791   C470.698303,744.577148 483.469666,744.577148 496.414612,744.577148   C496.775177,750.078735 495.476776,754.749512 494.897278,759.479004   C494.628693,761.671082 492.982147,762.333801 490.888824,762.330017   C472.566681,762.296509 454.244385,762.275024 435.922302,762.321106   C432.715027,762.329224 431.985291,760.498596 431.991455,757.839294   C432.002625,753.008911 431.996643,748.178467 431.997131,743.348083   C431.999908,715.697998 431.987946,688.047852 432.015778,660.397766   C432.022400,653.808838 432.172485,653.716431 438.722351,653.692322   C441.720520,653.681335 444.744873,653.937683 447.711060,653.628662   C452.579712,653.121277 454.055389,655.150635 454.027039,659.886536   C453.870422,686.036499 453.929474,712.187988 454.021637,738.338623   C454.029968,740.706848 452.799438,744.058105 457.477448,744.560791  z"/>
<path fill="#f9f9f8" opacity="1.000000" stroke="none" d=" M521.773071,561.488647   C532.843262,562.197449 543.188599,559.725281 553.973999,557.449219   C553.973999,565.565369 553.973999,572.963806 553.973999,581.145081   C542.896790,578.839539 532.231812,576.534302 520.651978,577.127258   C519.940369,588.186340 522.491211,598.794739 524.799255,610.150330   C516.846436,610.548523 509.330048,610.552673 501.181610,610.077454   C503.074249,601.339783 504.714447,593.066589 505.248505,584.639954   C505.322052,583.479614 505.508423,582.326477 505.635986,581.169312   C506.006073,577.812317 505.037567,576.557434 501.179474,576.815552   C491.566437,577.458618 482.087646,578.850891 472.165771,581.212463   C472.165771,573.048889 472.165771,565.520203 472.165771,557.433044   C479.705048,559.275208 487.038330,560.471375 494.426788,561.407349   C505.941711,562.866150 505.998718,562.749451 504.989624,551.478943   C504.308563,543.871704 502.869476,536.410217 501.069305,528.104858   C509.261719,527.808716 516.754333,527.585510 524.793518,528.313782   C523.778809,533.458008 522.726868,538.098267 521.978210,542.786987   C521.271484,547.212952 520.782532,551.681335 520.406738,556.148621   C520.260437,557.887024 519.781738,559.852417 521.773071,561.488647  z"/>
<path fill="#f9f9f8" opacity="1.000000" stroke="none" d=" M404.000061,311.635864   C435.319580,311.634888 466.147675,312.077545 496.955658,311.481567   C518.350525,311.067688 536.199890,328.111115 535.654968,350.118561   C535.340271,362.826935 533.595886,374.222504 523.777893,383.224396   C516.833435,389.591553 508.691406,393.177155 499.376587,393.189789   C419.745850,393.297577 340.114655,393.347473 260.484131,393.181915   C240.881729,393.141144 224.759262,376.387115 224.720337,356.777313   C224.709808,351.471924 224.176804,346.143036 225.386993,340.852264   C229.422394,323.210236 243.523117,311.677765 261.563904,311.656708   C308.875916,311.601532 356.187988,311.636902 404.000061,311.635864  M363.499939,372.687256   C381.166412,372.687775 398.832916,372.688171 416.499390,372.688843   C443.499084,372.689850 470.498840,372.733093 497.498383,372.671082   C508.038330,372.646881 514.613281,366.085358 514.869385,355.579529   C514.938416,352.748657 514.898499,349.913055 514.833557,347.081360   C514.717529,342.025116 512.214966,338.280121 508.316498,335.276520   C504.489136,332.327728 500.069550,332.118591 495.497864,332.121277   C428.332001,332.160950 361.166107,332.156281 294.000244,332.161835   C283.333710,332.162689 272.667145,332.178314 262.000641,332.155457   C255.861145,332.142273 251.102707,334.601562 247.668335,339.742462   C244.868958,343.932831 245.238708,348.618561 245.253754,353.273254   C245.295822,366.299408 251.583023,372.678162 264.501068,372.685760   C297.167358,372.704926 329.833618,372.688751 363.499939,372.687256  z"/>
<path fill="#f9f9f8" opacity="1.000000" stroke="none" d=" M717.099243,365.764709   C710.812683,379.921967 700.316223,388.077667 685.220215,389.194244   C669.622620,390.347900 657.525757,383.547943 650.118958,369.991302   C642.700562,356.413330 643.683716,342.529205 653.038025,330.096588   C662.550781,317.453461 675.773010,312.986755 691.082520,316.486786   C706.549866,320.022858 715.812683,330.339905 718.928528,345.743256   C720.248291,352.267609 719.713684,359.007050 717.099243,365.764709  M668.713806,343.367371   C668.100830,344.726776 667.289307,346.033051 666.908997,347.454712   C665.182251,353.909576 666.393127,359.775696 671.427734,364.301910   C676.534180,368.892670 682.539612,370.207886 688.994690,367.312317   C695.349976,364.461487 698.684204,359.435547 698.768860,352.423248   C698.853882,345.370941 694.828796,339.525909 688.268311,336.972351   C681.645447,334.394562 674.979065,336.418793 668.713806,343.367371  z"/>
<path fill="#f9f9f8" opacity="1.000000" stroke="none" d=" M605.769897,318.985626   C621.501526,327.793610 628.597290,341.793152 626.165405,358.698151   C624.117737,372.932526 612.773010,385.093781 597.899963,388.354095   C583.025024,391.614838 570.294312,387.219147 560.887024,375.396179   C551.080505,363.071533 549.655029,349.083862 556.991699,335.110260   C564.017090,321.729614 575.708740,315.237000 590.946289,315.446747   C596.019653,315.516541 600.833557,316.692871 605.769897,318.985626  M602.950989,342.677887   C596.642212,335.693420 588.188293,333.995209 581.086914,338.285919   C574.673157,342.161194 571.686523,350.336639 574.117798,357.362671   C577.315674,366.603668 587.137024,371.203125 595.804199,367.518616   C605.250366,363.502960 608.459534,353.247681 602.950989,342.677887  z"/>
<path fill="#f9f9f8" opacity="1.000000" stroke="none" d=" M253.088287,781.172119   C240.919632,790.132568 228.034622,791.909790 214.662155,785.764648   C201.063644,779.515564 193.704605,768.188171 193.103989,753.436768   C192.527573,739.278809 198.743500,727.791504 211.065598,720.480591   C224.284241,712.637695 237.843018,713.074341 250.694382,721.454651   C271.673035,735.134644 272.869385,764.244141 253.088287,781.172119  M237.840912,766.520142   C239.046051,765.639404 240.362946,764.876465 241.437408,763.857910   C246.707001,758.862244 247.967743,751.135803 244.663437,744.632141   C241.544830,738.494080 234.028946,734.624268 227.646637,735.870544   C217.247421,737.901184 211.644287,747.051880 214.542801,757.223267   C216.867172,765.379761 227.997467,772.004700 237.840912,766.520142  z"/>
<path fill="#f9f9f8" opacity="1.000000" stroke="none" d=" M779.326050,719.124268   C802.374878,707.533203 831.715332,722.515015 833.067749,751.455872   C833.934631,770.004822 818.884888,786.824219 799.448120,789.144958   C781.487976,791.289429 763.145935,777.761047 759.775818,759.884277   C756.529541,742.663696 763.625000,727.675903 779.326050,719.124268  M780.322815,757.023865   C783.825806,765.099060 790.890198,769.691284 798.060059,768.553955   C807.128845,767.115417 813.673279,758.488647 812.151733,749.978760   C810.439392,740.402039 801.842651,733.981323 793.233459,735.849060   C783.346436,737.993896 777.847656,746.551453 780.322815,757.023865  z"/>
</svg>